Avara Bold large.ufo
<glyph name="R" format="1">
  <advance width="840"/>
  <unicode hex="0052"/>
  <outline>
    <contour>
      <point x="40" y="800" type="line"/>
      <point x="440" y="800" type="line"/>
      <point x="640" y="760" type="line"/>
      <point x="720" y="600" type="line"/>
      <point x="640" y="440" type="line"/>
      <point x="460" y="400" type="line"/>
      <point x="460" y="400" type="line"/>
      <point x="580" y="360" type="line"/>
      <point x="800" y="0" type="line"/>
      <point x="720" y="-40" type="line"/>
      <point x="520" y="80" type="line"/>
      <point x="360" y="360" type="line"/>
      <point x="320" y="380" type="line"/>
      <point x="320" y="440" type="line"/>
      <point x="320" y="80" type="line"/>
      <point x="400" y="0" type="line"/>
      <point x="40" y="0" type="line"/>
      <point x="120" y="80" type="line"/>
      <point x="120" y="720" type="line"/>
    </contour>
    <contour>
      <point x="360" y="760" type="line"/>
      <point x="320" y="720" type="line"/>
      <point x="320" y="420" type="line"/>
      <point x="400" y="420" type="line"/>
      <point x="460" y="480" type="line"/>
      <point x="500" y="600" type="line"/>
      <point x="460" y="720" type="line"/>
      <point x="400" y="760" type="line"/>
    </contour>
  </outline>
</glyph>
<glyph name="a" format="1">
  <advance width="720"/>
  <unicode hex="0061"/>
  <outline>
    <contour>
      <point x="320" y="560" type="line"/>
      <point x="480" y="520" type="line"/>
      <point x="600" y="440" type="line"/>
      <point x="600" y="100" type="line"/>
      <point x="680" y="160" type="line"/>
      <point x="680" y="80" type="line"/>
      <point x="600" y="0" type="line"/>
      <point x="480" y="0" type="line"/>
      <point x="440" y="80" type="line"/>
      <point x="320" y="0" type="line"/>
      <point x="200" y="0" type="line"/>
      <point x="120" y="40" type="line"/>
      <point x="40" y="160" type="line"/>
      <point x="80" y="280" type="line"/>
      <point x="160" y="320" type="line"/>
      <point x="400" y="380" type="line"/>
      <point x="400" y="440" type="line"/>
      <point x="360" y="480" type="line"/>
      <point x="280" y="480" type="line"/>
      <point x="180" y="360" type="line"/>
      <point x="80" y="480" type="line"/>
    </contour>
    <contour>
      <point x="400" y="300" type="line"/>
      <point x="240" y="240" type="line"/>
      <point x="240" y="160" type="line"/>
      <point x="320" y="80" type="line"/>
      <point x="360" y="100" type="line"/>
      <point x="400" y="160" type="line"/>
    </contour>
  </outline>
</glyph>
<glyph name="d" format="1">
  <advance width="740"/>
  <unicode hex="0064"/>
  <outline>
    <contour>
      <point x="640" y="840" type="line"/>
      <point x="640" y="100" type="line"/>
      <point x="640" y="100" type="line"/>
      <point x="720" y="160" type="line"/>
      <point x="720" y="80" type="line" smooth="yes"/>
      <point x="680" y="0" type="line"/>
      <point x="520" y="0" type="line"/>
      <point x="480" y="60" type="line"/>
      <point x="440" y="40" type="line"/>
      <point x="360" y="0" type="line"/>
      <point x="280" y="0" type="line"/>
      <point x="100" y="60" type="line"/>
      <point x="20" y="200" type="line"/>
      <point x="20" y="360" type="line"/>
      <point x="100" y="500" type="line"/>
      <point x="280" y="560" type="line"/>
      <point x="360" y="560" type="line"/>
      <point x="440" y="540" type="line"/>
      <point x="440" y="680" type="line" smooth="yes"/>
      <point x="360" y="760" type="line"/>
    </contour>
    <contour>
      <point x="320" y="480" type="line"/>
      <point x="260" y="440" type="line"/>
      <point x="220" y="280" type="line"/>
      <point x="260" y="120" type="line"/>
      <point x="320" y="80" type="line"/>
      <point x="380" y="120" type="line"/>
      <point x="420" y="200" type="line"/>
      <point x="420" y="360" type="line"/>
      <point x="380" y="440" type="line"/>
    </contour>
  </outline>
</glyph>
<glyph name="e" format="1">
  <advance width="640"/>
  <unicode hex="0065"/>
  <outline>
    <contour>
      <point x="320" y="560" type="line"/>
      <point x="400" y="560" type="line"/>
      <point x="540" y="520" type="line"/>
      <point x="600" y="400" type="line"/>
      <point x="560" y="320" type="line"/>
      <point x="240" y="220" type="line"/>
      <point x="300" y="100" type="line"/>
      <point x="400" y="60" type="line"/>
      <point x="480" y="100" type="line"/>
      <point x="520" y="180" type="line"/>
      <point x="600" y="120" type="line"/>
      <point x="520" y="40" type="line"/>
      <point x="440" y="0" type="line"/>
      <point x="320" y="0" type="line"/>
      <point x="160" y="40" type="line"/>
      <point x="40" y="220" type="line"/>
      <point x="40" y="340" type="line"/>
      <point x="140" y="520" type="line"/>
    </contour>
    <contour>
      <point x="360" y="500" type="line"/>
      <point x="300" y="460" type="line"/>
      <point x="240" y="300" type="line"/>
      <point x="440" y="380" type="line"/>
      <point x="440" y="460" type="line"/>
    </contour>
  </outline>
</glyph>
<glyph name="f" format="1">
  <advance width="540"/>
  <unicode hex="0066"/>
  <outline>
    <contour>
      <point x="320" y="520" type="line"/>
      <point x="460" y="520" type="line"/>
      <point x="460" y="460" type="line"/>
      <point x="420" y="460" type="line"/>
      <point x="320" y="420" type="line"/>
      <point x="320" y="80" type="line"/>
      <point x="400" y="0" type="line"/>
      <point x="40" y="0" type="line"/>
      <point x="120" y="80" type="line"/>
      <point x="120" y="420" type="line"/>
      <point x="40" y="460" type="line"/>
      <point x="40" y="520" type="line"/>
      <point x="120" y="520" type="line"/>
      <point x="120" y="680" type="line"/>
      <point x="160" y="760" type="line"/>
      <point x="220" y="800" type="line"/>
      <point x="360" y="840" type="line"/>
      <point x="520" y="800" type="line"/>
      <point x="520" y="640" type="line"/>
      <point x="480" y="600" type="line"/>
      <point x="380" y="640" type="line"/>
      <point x="440" y="760" type="line"/>
      <point x="360" y="780" type="line"/>
      <point x="320" y="720" type="line"/>
    </contour>
  </outline>
</glyph>
<glyph name="g" format="1">
  <advance width="700"/>
  <unicode hex="0067"/>
  <outline>
    <contour>
      <point x="660" y="560" type="line"/>
      <point x="700" y="440" type="line"/>
      <point x="640" y="440" type="line"/>
      <point x="560" y="480" type="line"/>
      <point x="620" y="400" type="line"/>
      <point x="620" y="320" type="line"/>
      <point x="560" y="240" type="line"/>
      <point x="400" y="160" type="line"/>
      <point x="280" y="120" type="line"/>
      <point x="480" y="40" type="line"/>
      <point x="660" y="-80" type="line"/>
      <point x="660" y="-160" type="line"/>
      <point x="580" y="-280" type="line"/>
      <point x="400" y="-320" type="line"/>
      <point x="320" y="-320" type="line"/>
      <point x="100" y="-280" type="line"/>
      <point x="20" y="-160" type="line"/>
      <point x="20" y="-80" type="line"/>
      <point x="240" y="40" type="line"/>
      <point x="120" y="80" type="line"/>
      <point x="180" y="120" type="line"/>
      <point x="240" y="160" type="line"/>
      <point x="120" y="200" type="line"/>
      <point x="20" y="320" type="line"/>
      <point x="20" y="400" type="line"/>
      <point x="120" y="520" type="line"/>
      <point x="280" y="560" type="line"/>
      <point x="360" y="560" type="line"/>
      <point x="500" y="520" type="line"/>
    </contour>
    <contour>
      <point x="320" y="500" type="line"/>
      <point x="260" y="460" type="line"/>
      <point x="220" y="360" type="line"/>
      <point x="260" y="260" type="line"/>
      <point x="320" y="220" type="line"/>
      <point x="380" y="260" type="line"/>
      <point x="420" y="360" type="line"/>
      <point x="380" y="460" type="line"/>
    </contour>
    <contour>
      <point x="280" y="0" type="line"/>
      <point x="220" y="-80" type="line"/>
      <point x="220" y="-160" type="line"/>
      <point x="260" y="-220" type="line"/>
      <point x="400" y="-260" type="line"/>
      <point x="460" y="-200" type="line"/>
      <point x="460" y="-120" type="line"/>
      <point x="380" y="-40" type="line"/>
    </contour>
  </outline>
</glyph>
<glyph name="h" format="1">
  <advance width="800"/>
  <unicode hex="0068"/>
  <outline>
    <contour>
      <point x="20" y="760" type="line"/>
      <point x="300" y="840" type="line"/>
      <point x="300" y="460" type="line"/>
      <point x="340" y="520" type="line"/>
      <point x="420" y="560" type="line"/>
      <point x="580" y="540" type="line"/>
      <point x="700" y="440" type="line"/>
      <point x="700" y="80" type="line"/>
      <point x="780" y="0" type="line"/>
      <point x="420" y="0" type="line"/>
      <point x="500" y="80" type="line"/>
      <point x="500" y="420" type="line"/>
      <point x="460" y="460" type="line"/>
      <point x="380" y="460" type="line"/>
      <point x="300" y="340" type="line"/>
      <point x="300" y="80" type="line"/>
      <point x="380" y="0" type="line"/>
      <point x="20" y="0" type="line"/>
      <point x="100" y="80" type="line"/>
      <point x="100" y="700" type="line" smooth="yes"/>
    </contour>
  </outline>
</glyph>
<glyph name="i" format="1">
  <advance width="440"/>
  <unicode hex="0069"/>
  <outline>
    <contour>
      <point x="40" y="480" type="line"/>
      <point x="320" y="560" type="line"/>
      <point x="320" y="80" type="line"/>
      <point x="400" y="0" type="line"/>
      <point x="40" y="0" type="line"/>
      <point x="120" y="80" type="line"/>
      <point x="120" y="420" type="line"/>
    </contour>
    <contour>
      <point x="280" y="620" type="line"/>
      <point x="220" y="620" type="line"/>
      <point x="120" y="660" type="line"/>
      <point x="120" y="720" type="line"/>
      <point x="160" y="820" type="line"/>
      <point x="220" y="820" type="line"/>
      <point x="320" y="780" type="line"/>
      <point x="320" y="720" type="line"/>
    </contour>
  </outline>
</glyph>
<glyph name="j" format="1">
  <advance width="380"/>
  <unicode hex="006A"/>
  <outline>
    <contour>
      <point x="40" y="480" type="line"/>
      <point x="320" y="560" type="line"/>
      <point x="320" y="-40" type="line"/>
      <point x="180" y="-220" type="line"/>
      <point x="20" y="-320" type="line"/>
      <point x="-40" y="-280" type="line"/>
      <point x="80" y="-160" type="line"/>
      <point x="120" y="-40" type="line"/>
      <point x="120" y="420" type="line"/>
    </contour>
    <contour>
      <point x="280" y="640" type="line"/>
      <point x="220" y="640" type="line"/>
      <point x="120" y="680" type="line"/>
      <point x="120" y="740" type="line"/>
      <point x="160" y="840" type="line"/>
      <point x="220" y="840" type="line"/>
      <point x="320" y="800" type="line"/>
      <point x="320" y="740" type="line"/>
    </contour>
  </outline>
</glyph>
<glyph name="k" format="1">
  <advance width="720"/>
  <unicode hex="006B"/>
  <outline>
    <contour>
      <point x="20" y="760" type="line"/>
      <point x="300" y="840" type="line"/>
      <point x="300" y="280" type="line"/>
      <point x="460" y="440" type="line"/>
      <point x="380" y="520" type="line"/>
      <point x="660" y="520" type="line"/>
      <point x="480" y="320" type="line"/>
      <point x="700" y="40" type="line"/>
      <point x="620" y="-40" type="line"/>
      <point x="500" y="40" type="line"/>
      <point x="360" y="200" type="line"/>
      <point x="300" y="140" type="line"/>
      <point x="300" y="80" type="line"/>
      <point x="380" y="0" type="line"/>
      <point x="20" y="0" type="line"/>
      <point x="100" y="80" type="line"/>
      <point x="100" y="700" type="line"/>
    </contour>
  </outline>
</glyph>
<glyph name="l" format="1">
  <advance width="420"/>
  <unicode hex="006C"/>
  <outline>
    <contour>
      <point x="40" y="760" type="line"/>
      <point x="320" y="840" type="line"/>
      <point x="320" y="80" type="line"/>
      <point x="400" y="0" type="line"/>
      <point x="40" y="0" type="line"/>
      <point x="120" y="80" type="line"/>
      <point x="120" y="700" type="line" smooth="yes"/>
    </contour>
  </outline>
</glyph>
<glyph name="m" format="1">
  <advance width="1200"/>
  <unicode hex="006D"/>
  <outline>
    <contour>
      <point x="20" y="0" type="line"/>
      <point x="100" y="80" type="line"/>
      <point x="100" y="400" type="line"/>
      <point x="20" y="480" type="line"/>
      <point x="300" y="560" type="line"/>
      <point x="280" y="420" type="line"/>
      <point x="380" y="520" type="line"/>
      <point x="460" y="560" type="line"/>
      <point x="620" y="520" type="line"/>
      <point x="680" y="420" type="line"/>
      <point x="780" y="520" type="line"/>
      <point x="860" y="560" type="line"/>
      <point x="1020" y="520" type="line"/>
      <point x="1100" y="400" type="line"/>
      <point x="1100" y="80" type="line"/>
      <point x="1180" y="0" type="line"/>
      <point x="820" y="0" type="line"/>
      <point x="900" y="80" type="line"/>
      <point x="900" y="400" type="line"/>
      <point x="860" y="440" type="line"/>
      <point x="820" y="440" type="line"/>
      <point x="700" y="320" type="line"/>
      <point x="700" y="80" type="line"/>
      <point x="780" y="0" type="line"/>
      <point x="420" y="0" type="line"/>
      <point x="500" y="80" type="line"/>
      <point x="500" y="400" type="line"/>
      <point x="460" y="440" type="line"/>
      <point x="420" y="440" type="line"/>
      <point x="300" y="320" type="line"/>
      <point x="300" y="80" type="line"/>
      <point x="380" y="0" type="line"/>
    </contour>
  </outline>
</glyph>
<glyph name="n" format="1">
  <advance width="820"/>
  <unicode hex="006E"/>
  <outline>
    <contour>
      <point x="40" y="0" type="line"/>
      <point x="120" y="80" type="line"/>
      <point x="120" y="420" type="line"/>
      <point x="40" y="480" type="line"/>
      <point x="320" y="560" type="line"/>
      <point x="300" y="420" type="line"/>
      <point x="400" y="520" type="line"/>
      <point x="480" y="560" type="line"/>
      <point x="640" y="540" type="line"/>
      <point x="720" y="440" type="line"/>
      <point x="720" y="80" type="line"/>
      <point x="800" y="0" type="line"/>
      <point x="440" y="0" type="line"/>
      <point x="520" y="80" type="line"/>
      <point x="520" y="420" type="line"/>
      <point x="460" y="460" type="line"/>
      <point x="400" y="440" type="line"/>
      <point x="320" y="360" type="line"/>
      <point x="320" y="80" type="line"/>
      <point x="400" y="0" type="line"/>
    </contour>
  </outline>
</glyph>
<glyph name="o" format="1">
  <advance width="680"/>
  <unicode hex="006F"/>
  <outline>
    <contour>
      <point x="300" y="560" type="line"/>
      <point x="380" y="560" type="line"/>
      <point x="560" y="480" type="line"/>
      <point x="640" y="360" type="line"/>
      <point x="640" y="280" type="line"/>
      <point x="640" y="200" type="line"/>
      <point x="560" y="80" type="line"/>
      <point x="360" y="0" type="line"/>
      <point x="320" y="0" type="line"/>
      <point x="120" y="80" type="line"/>
      <point x="40" y="200" type="line"/>
      <point x="40" y="280" type="line"/>
      <point x="40" y="360" type="line"/>
      <point x="120" y="480" type="line"/>
    </contour>
    <contour>
      <point x="340" y="480" type="line"/>
      <point x="260" y="420" type="line"/>
      <point x="240" y="280" type="line"/>
      <point x="260" y="140" type="line"/>
      <point x="340" y="80" type="line"/>
      <point x="420" y="140" type="line"/>
      <point x="440" y="280" type="line"/>
      <point x="420" y="420" type="line"/>
    </contour>
  </outline>
</glyph>
<glyph name="p" format="1">
  <advance width="760"/>
  <unicode hex="0070"/>
  <outline>
    <contour>
      <point x="460" y="560" type="line"/>
      <point x="620" y="520" type="line"/>
      <point x="720" y="360" type="line"/>
      <point x="720" y="200" type="line"/>
      <point x="620" y="40" type="line"/>
      <point x="460" y="0" type="line"/>
      <point x="380" y="0" type="line"/>
      <point x="300" y="40" type="line"/>
      <point x="300" y="-240" type="line"/>
      <point x="380" y="-320" type="line"/>
      <point x="20" y="-320" type="line"/>
      <point x="100" y="-240" type="line"/>
      <point x="100" y="400" type="line"/>
      <point x="20" y="480" type="line"/>
      <point x="300" y="560" type="line"/>
      <point x="280" y="420" type="line"/>
      <point x="380" y="520" type="line"/>
    </contour>
    <contour>
      <point x="400" y="440" type="line"/>
      <point x="300" y="340" type="line"/>
      <point x="300" y="160" type="line"/>
      <point x="320" y="120" type="line"/>
      <point x="400" y="60" type="line"/>
      <point x="480" y="100" type="line"/>
      <point x="520" y="280" type="line"/>
      <point x="480" y="440" type="line"/>
    </contour>
  </outline>
</glyph>
<glyph name="q" format="1">
  <advance width="780"/>
  <unicode hex="0071"/>
  <outline>
    <contour>
      <point x="740" y="480" type="line"/>
      <point x="660" y="400" type="line"/>
      <point x="660" y="-240" type="line"/>
      <point x="740" y="-320" type="line"/>
      <point x="380" y="-320" type="line"/>
      <point x="460" y="-240" type="line"/>
      <point x="460" y="40" type="line"/>
      <point x="380" y="0" type="line"/>
      <point x="300" y="0" type="line"/>
      <point x="140" y="40" type="line"/>
      <point x="40" y="200" type="line"/>
      <point x="40" y="360" type="line"/>
      <point x="140" y="520" type="line"/>
      <point x="340" y="560" type="line"/>
      <point x="420" y="520" type="line"/>
      <point x="500" y="440" type="line"/>
      <point x="540" y="560" type="line"/>
    </contour>
    <contour>
      <point x="380" y="460" type="line"/>
      <point x="280" y="460" type="line"/>
      <point x="240" y="280" type="line"/>
      <point x="280" y="100" type="line"/>
      <point x="360" y="60" type="line"/>
      <point x="440" y="100" type="line"/>
      <point x="460" y="160" type="line"/>
      <point x="460" y="380" type="line"/>
    </contour>
  </outline>
</glyph>
<glyph name="r" format="1">
  <advance width="640"/>
  <unicode hex="0072"/>
  <outline>
    <contour>
      <point x="340" y="560" type="line"/>
      <point x="300" y="400" type="line"/>
      <point x="300" y="360" type="line"/>
      <point x="420" y="520" type="line"/>
      <point x="500" y="560" type="line"/>
      <point x="600" y="520" type="line"/>
      <point x="600" y="440" type="line"/>
      <point x="520" y="320" type="line"/>
      <point x="460" y="320" type="line"/>
      <point x="460" y="420" type="line"/>
      <point x="420" y="420" type="line"/>
      <point x="340" y="300" type="line"/>
      <point x="340" y="80" type="line"/>
      <point x="420" y="0" type="line"/>
      <point x="60" y="0" type="line"/>
      <point x="140" y="80" type="line"/>
      <point x="140" y="420" type="line"/>
      <point x="20" y="480" type="line"/>
    </contour>
  </outline>
</glyph>
<glyph name="s" format="1">
  <advance width="540"/>
  <unicode hex="0073"/>
  <outline>
    <contour>
      <point x="500" y="380" type="line"/>
      <point x="440" y="380" type="line"/>
      <point x="360" y="460" type="line"/>
      <point x="200" y="460" type="line"/>
      <point x="180" y="440" type="line"/>
      <point x="200" y="400" type="line"/>
      <point x="480" y="280" type="line"/>
      <point x="520" y="160" type="line"/>
      <point x="480" y="40" type="line"/>
      <point x="400" y="0" type="line"/>
      <point x="200" y="0" type="line"/>
      <point x="120" y="40" type="line"/>
      <point x="60" y="0" type="line"/>
      <point x="40" y="200" type="line"/>
      <point x="80" y="200" type="line"/>
      <point x="160" y="100" type="line"/>
      <point x="240" y="60" type="line"/>
      <point x="360" y="100" type="line"/>
      <point x="360" y="140" type="line"/>
      <point x="100" y="260" type="line"/>
      <point x="40" y="400" type="line"/>
      <point x="80" y="520" type="line"/>
      <point x="240" y="560" type="line"/>
      <point x="400" y="520" type="line"/>
      <point x="460" y="560" type="line"/>
    </contour>
  </outline>
</glyph>
<glyph name="t" format="1">
  <advance width="480"/>
  <unicode hex="0074"/>
  <outline>
    <contour>
      <point x="300" y="680" type="line"/>
      <point x="300" y="520" type="line"/>
      <point x="420" y="520" type="line"/>
      <point x="420" y="460" type="line"/>
      <point x="300" y="420" type="line"/>
      <point x="300" y="120" type="line"/>
      <point x="340" y="100" type="line"/>
      <point x="420" y="180" type="line"/>
      <point x="460" y="120" type="line"/>
      <point x="380" y="40" type="line"/>
      <point x="300" y="0" type="line"/>
      <point x="180" y="0" type="line"/>
      <point x="100" y="120" type="line"/>
      <point x="100" y="420" type="line"/>
      <point x="20" y="460" type="line"/>
      <point x="20" y="520" type="line"/>
      <point x="120" y="560" type="line"/>
      <point x="160" y="600" type="line"/>
      <point x="180" y="680" type="line"/>
    </contour>
  </outline>
</glyph>
<glyph name="u" format="1">
  <advance width="780"/>
  <unicode hex="0075"/>
  <outline>
    <contour>
      <point x="760" y="80" type="line"/>
      <point x="680" y="0" type="line"/>
      <point x="560" y="0" type="line"/>
      <point x="520" y="80" type="line"/>
      <point x="420" y="0" type="line"/>
      <point x="240" y="0" type="line"/>
      <point x="120" y="40" type="line"/>
      <point x="80" y="120" type="line"/>
      <point x="80" y="460" type="line"/>
      <point x="0" y="520" type="line"/>
      <point x="280" y="560" type="line"/>
      <point x="280" y="140" type="line"/>
      <point x="320" y="100" type="line"/>
      <point x="400" y="100" type="line"/>
      <point x="460" y="140" type="line"/>
      <point x="480" y="200" type="line"/>
      <point x="480" y="460" type="line"/>
      <point x="400" y="520" type="line"/>
      <point x="680" y="560" type="line"/>
      <point x="680" y="100" type="line"/>
      <point x="760" y="140" type="line"/>
    </contour>
  </outline>
</glyph>
<glyph name="v" format="1">
  <advance width="760"/>
  <unicode hex="0076"/>
  <outline>
    <contour>
      <point x="500" y="0" type="line"/>
      <point x="260" y="0" type="line"/>
      <point x="100" y="440" type="line"/>
      <point x="20" y="520" type="line"/>
      <point x="420" y="520" type="line"/>
      <point x="340" y="440" type="line"/>
      <point x="460" y="120" type="line"/>
      <point x="580" y="440" type="line"/>
      <point x="500" y="520" type="line"/>
      <point x="760" y="520" type="line"/>
      <point x="660" y="440" type="line"/>
    </contour>
  </outline>
</glyph>
<glyph name="w" format="1">
  <advance width="1100"/>
  <unicode hex="0077"/>
  <outline>
    <contour>
      <point x="540" y="280" type="line"/>
      <point x="440" y="0" type="line"/>
      <point x="240" y="0" type="line"/>
      <point x="80" y="440" type="line"/>
      <point x="0" y="520" type="line"/>
      <point x="360" y="520" type="line"/>
      <point x="280" y="440" type="line"/>
      <point x="400" y="120" type="line"/>
      <point x="520" y="460" type="line"/>
      <point x="700" y="480" type="line"/>
      <point x="820" y="120" type="line"/>
      <point x="940" y="440" type="line"/>
      <point x="860" y="520" type="line"/>
      <point x="1100" y="520" type="line"/>
      <point x="1020" y="440" type="line"/>
      <point x="860" y="0" type="line"/>
      <point x="660" y="0" type="line"/>
    </contour>
  </outline>
</glyph>
<glyph name="x" format="1">
  <advance width="720"/>
  <unicode hex="0078"/>
  <outline>
    <contour>
      <point x="620" y="80" type="line"/>
      <point x="700" y="0" type="line"/>
      <point x="400" y="0" type="line"/>
      <point x="440" y="80" type="line"/>
      <point x="360" y="200" type="line"/>
      <point x="280" y="80" type="line"/>
      <point x="320" y="0" type="line"/>
      <point x="20" y="0" type="line"/>
      <point x="260" y="240" type="line"/>
      <point x="100" y="440" type="line"/>
      <point x="20" y="520" type="line"/>
      <point x="320" y="520" type="line"/>
      <point x="280" y="440" type="line"/>
      <point x="360" y="320" type="line" smooth="yes"/>
      <point x="440" y="440" type="line"/>
      <point x="400" y="520" type="line"/>
      <point x="700" y="520" type="line"/>
      <point x="460" y="280" type="line"/>
    </contour>
  </outline>
</glyph>
<glyph name="y" format="1">
  <advance width="700"/>
  <unicode hex="0079"/>
  <outline>
    <contour>
      <point x="260" y="40" type="line"/>
      <point x="60" y="440" type="line"/>
      <point x="-20" y="520" type="line"/>
      <point x="340" y="520" type="line"/>
      <point x="260" y="440" type="line"/>
      <point x="360" y="180" type="line" smooth="yes"/>
      <point x="500" y="440" type="line"/>
      <point x="420" y="520" type="line"/>
      <point x="700" y="520" type="line"/>
      <point x="620" y="440" type="line"/>
      <point x="220" y="-320" type="line"/>
      <point x="80" y="-320" type="line" smooth="yes"/>
      <point x="20" y="-280" type="line"/>
    </contour>
  </outline>
</glyph>
<glyph name="z" format="1">
  <advance width="680"/>
  <unicode hex="007A"/>
  <outline>
    <contour>
      <point x="500" y="60" type="line"/>
      <point x="580" y="160" type="line"/>
      <point x="640" y="160" type="line"/>
      <point x="600" y="0" type="line"/>
      <point x="40" y="0" type="line"/>
      <point x="40" y="40" type="line"/>
      <point x="340" y="460" type="line"/>
      <point x="180" y="460" type="line"/>
      <point x="120" y="360" type="line"/>
      <point x="60" y="360" type="line"/>
      <point x="100" y="560" type="line"/>
      <point x="160" y="520" type="line"/>
      <point x="620" y="520" type="line"/>
      <point x="280" y="100" type="line"/>
    </contour>
  </outline>
</glyph>
<glyph name="ccedilla" format="1">
  <advance width="620"/>
  <unicode hex="00E7"/>
  <outline>
    <contour>
      <point x="300" y="0" type="line"/>
      <point x="280" y="-40" type="line"/>
      <point x="280" y="-80" type="line"/>
      <point x="400" y="-120" type="line"/>
      <point x="360" y="-180" type="line"/>
      <point x="320" y="-180" type="line"/>
      <point x="280" y="-120" type="line"/>
      <point x="220" y="-160" type="line"/>
      <point x="260" y="-240" type="line"/>
      <point x="420" y="-240" type="line"/>
      <point x="460" y="-160" type="line"/>
      <point x="460" y="-80" type="line"/>
      <point x="360" y="-40" type="line"/>
      <point x="380" y="0" type="line"/>
      <point x="420" y="0" type="line"/>
      <point x="500" y="40" type="line"/>
      <point x="580" y="140" type="line"/>
      <point x="500" y="180" type="line"/>
      <point x="480" y="120" type="line"/>
      <point x="400" y="60" type="line"/>
      <point x="280" y="100" type="line"/>
      <point x="240" y="240" type="line"/>
      <point x="240" y="320" type="line"/>
      <point x="280" y="440" type="line"/>
      <point x="360" y="480" type="line"/>
      <point x="420" y="440" type="line"/>
      <point x="420" y="360" type="line"/>
      <point x="460" y="320" type="line"/>
      <point x="580" y="380" type="line"/>
      <point x="500" y="520" type="line"/>
      <point x="380" y="560" type="line"/>
      <point x="300" y="560" type="line"/>
      <point x="120" y="500" type="line"/>
      <point x="40" y="340" type="line"/>
      <point x="40" y="220" type="line"/>
      <point x="140" y="60" type="line"/>
    </contour>
  </outline>
</glyph>
